<svg width="488" height="488" viewBox="0 0 488 488" xmlns="http://www.w3.org/2000/svg" xmlns:xlink="http://www.w3.org/1999/xlink"><title>Page 1</title><defs><path id="a" d="M.302.585v5.927H.034V.585h.268z"/><path id="c" d="M52.067.777H.026v34.947h52.04V.777z"/><path id="e" d="M15.38.32v26.973H.37V.321h15.01z"/><path id="g" d="M35.828.777H.074v50.38h35.754V.777z"/><path id="i" d="M1.85.777H.71v1.077h1.14V.777z"/><path id="k" d="M.32 3.232h11.4V.98H.32v2.25z"/><path id="m" d="M15.38.472v26.972H.37V.472h15.01z"/><path id="o" d="M46.423 54.94H.993V.383h45.43z"/><path id="q" d="M40.065.777H0v34.946h40.065V.777z"/><path id="s" d="M0 .285v8.794h6.004V.285H0z"/><path id="u" d="M36.676.777H.924v50.38h35.752V.777z"/><path id="w" d="M0 27.916V.322h13.034v27.594z"/><path id="y" d="M1.696.777H.556v1.077h1.14V.777z"/><path id="A" d="M.17 3.232h11.397V.98H.17v2.25z"/><path id="C" d="M0 .438v8.795h6.004V.438H0z"/><path id="E" d="M0 .039V56.85h45.275V.04H0z"/><path id="G" d="M46.27 54.94H.843V.383H46.27V54.94z"/><path id="I" d="M0 28.066V.472h13.034v27.594H0z"/></defs><g fill="none" fill-rule="evenodd"><path fill="#C91F1F" d="M477.016 242L475 245.21 487 270v-10.269l-6.417-13.259h3.164l3.253 6.725V242zM475.58 1l-.58.935L487 27V16.617l-6.418-13.403h3.164L487 10.007V1zM483 111.44l4 3.56v-6.324l-.757-.676z"/><g transform="translate(486.846 152.971)"><mask id="b" fill="#fff"><use xlink:href="#a"/></mask><path d="M.301 6.512V.585a16.588 16.588 0 0 0 0 5.927" fill="#C91F1F" mask="url(#b)"/></g><path d="M406.982 159.937l-.948-.21h-18.35l-10.167-21.03h3.155l6.454 13.349 2.01 1.26h12.697v-4.465h-11.296l-4.904-10.144h18.176l13.241 25.958-10.068-4.718zm-1.808-25.706h-31.22l-2.007 3.204 16.29 33.691 4.02-1.944-1.188-2.456-1.225-2.532h2.05l3.352 6.931 4.02-1.943-2.41-4.988h8.682l15.51 7.264 2.936-3.037-16.818-32.972-1.992-1.218z" fill="#C91F1F"/><g transform="translate(231.575)"><mask id="d" fill="#fff"><use xlink:href="#c"/></mask><path d="M5.594 2.962H8.75l6.456 13.347 2.011 1.264h12.694v-4.466H18.615L13.711 2.962h18.176L45.13 28.92 35.062 24.2l-.946-.209H15.764L5.594 2.962zm14.743 30.483l-2.415-4.987h2.053l3.352 6.932 4.02-1.945-2.412-4.987h8.683l15.51 7.266 2.939-3.038L35.787.776H.603l-.578.922 16.289 33.693 4.022-1.946z" fill="#C91F1F" mask="url(#d)"/></g><path fill="#C91F1F" d="M368.782 89.098l-3.963-8.193-4.02 1.943 3.963 8.195zm33.331 120.862l-4.02 1.944 3.96 8.194 4.021-1.945zm7.956-144.225l3.963-8.194-4.021-1.946-3.962 8.195zm-48.543-51.356l-8.192-3.963-1.944 4.021 8.192 3.962zm-56.181 76.98l-4.02-1.944-3.961 8.193 4.018 1.945zm38.639 63.841l8.193 3.962 1.944-4.02-8.192-3.962zm-7.06 63.729l4.02 1.944 3.962-8.194-4.02-1.945zM311.168 8.116l-4.02-1.945-3.961 8.195 4.02 1.943zm-31.156 54.488l-3.961-8.193-4.02 1.944 3.961 8.194zM412.736 122.3l-6.709-6.149-3.017 3.294 6.708 6.149zm-169.868-14.936l-3.017 3.294 6.709 6.149 3.017-3.294zm236.906 40.585l-4.02-1.944-3.961 8.193 4.02 1.945zM432.193 14.448l-4.02-1.944-3.962 8.195 4.02 1.943zM303.104 36.284c.107-.11.5-.286 1.3-.286 2.384 0 6.56 1.578 9.931 4.598 1.343 1.2 2.04 2.406 2.074 3.578.046 1.65-1.223 3.102-1.77 3.646-.53.534-1.943 1.77-3.556 1.77-1.203 0-2.436-.698-3.668-2.073-4.243-4.738-5.216-10.33-4.31-11.233m7.978 17.773c3.166 0 5.566-1.928 6.715-3.077 1.186-1.189 3.165-3.667 3.073-6.93-.068-2.448-1.267-4.729-3.558-6.783-3.832-3.432-9.022-5.739-12.909-5.739-2.368 0-3.732.869-4.46 1.597-3.546 3.546-.663 12.003 4.143 17.37 2.114 2.364 4.469 3.562 6.996 3.562m-45.397 167.276c3.371-3.019 7.547-4.598 9.93-4.598.799 0 1.194.178 1.3.287.902.902-.071 6.493-4.31 11.232-1.232 1.376-2.466 2.075-3.67 2.075-1.612 0-3.024-1.238-3.557-1.771-.547-.547-1.813-1.996-1.768-3.648.033-1.17.732-2.377 2.075-3.577m3.25 13.461c2.526 0 4.881-1.198 6.999-3.561 4.802-5.37 7.683-13.825 4.138-17.371-.727-.727-2.09-1.593-4.457-1.593-3.89 0-9.077 2.304-12.91 5.735-2.293 2.054-3.491 4.335-3.56 6.784-.088 3.263 1.888 5.74 3.076 6.93 1.15 1.149 3.55 3.076 6.715 3.076m77.005-105.576c-.53.534-1.942 1.771-3.558 1.771-1.203 0-2.436-.699-3.668-2.074-4.24-4.741-5.213-10.33-4.31-11.235.108-.107.5-.287 1.3-.287 2.382 0 6.558 1.58 9.932 4.598 1.343 1.203 2.04 2.406 2.071 3.58.047 1.65-1.22 3.1-1.767 3.647m2.672-10.554c-3.832-3.43-9.02-5.737-12.909-5.737-2.365 0-3.73.868-4.458 1.595-3.545 3.547-.663 12.001 4.143 17.37 2.114 2.363 4.469 3.563 6.994 3.563 3.166 0 5.566-1.928 6.717-3.08 1.186-1.185 3.166-3.664 3.073-6.93-.068-2.446-1.266-4.73-3.56-6.78m124.55 56.515c-3.547 3.546-.665 12 4.141 17.369 2.115 2.362 4.468 3.563 6.995 3.563a8.068 8.068 0 0 0 2.847-.527v-5.084c-.7.544-1.725 1.143-2.847 1.143-1.203 0-2.435-.696-3.668-2.075-4.24-4.738-5.214-10.327-4.309-11.233.106-.105.499-.286 1.298-.286 2.288 0 6.232 1.455 9.526 4.245v-5.505c-3.183-1.985-6.696-3.206-9.526-3.206-2.367 0-3.73.868-4.457 1.596m-117.306 4.196c.802-.804 2.245-1.229 4.177-1.229 3.805 0 8.775 1.628 13.506 4.24h.001l-3.26.857-1.664 2.066-.253 6.007-7.175 1.696-1.665 1.686-.57 2.55c-1.399-2.503-2.53-5.104-3.298-7.645-1.438-4.75-1.36-8.669.2-10.228m30.419 17.298c.11 4.02-2.578 7.324-4.19 8.935-1.564 1.567-4.778 4.194-8.693 4.194-3.067 0-6.096-1.648-9-4.893a40.122 40.122 0 0 1-2.026-2.454l1.211-5.418 7.46-1.765 1.717-2.079.255-6.05 5.62-1.475s.002 0 .002.002h.002c.96.713 1.883 1.463 2.753 2.243 3.162 2.83 4.806 5.777 4.889 8.76m-12.883 17.595c5.525 0 9.8-3.447 11.852-5.5 2.12-2.12 5.652-6.526 5.494-12.219-.118-4.256-2.263-8.284-6.373-11.966-7.172-6.42-17.176-10.903-24.331-10.903-3.186 0-5.655.854-7.336 2.536-2.85 2.85-3.318 8.064-1.318 14.678 1.796 5.928 5.324 12.12 9.684 16.993 3.79 4.235 7.938 6.38 12.328 6.38"/><g transform="translate(471.767 62.481)"><mask id="f" fill="#fff"><use xlink:href="#e"/></mask><path d="M.374 14.929c-.109 4.005 2.344 7.073 3.816 8.546 1.426 1.426 4.4 3.818 8.285 3.818.989 0 1.96-.151 2.906-.455v-4.893c-.966.587-1.936.882-2.906.882-2.276 0-4.189-1.573-5.126-2.51-.966-.965-2.575-2.93-2.51-5.266.05-1.726 1.035-3.463 2.934-5.164C10 7.893 12.739 6.206 15.38 5.1V.32C11.743 1.552 7.922 3.763 4.794 6.56 1.947 9.111.457 11.926.374 14.93" fill="#C91F1F" mask="url(#f)"/></g><path d="M324.517 80.725l1.227 5.367 2.175 1.735h8.787v-4.466H329.7l-.603-2.636h2.406l2.145-1.616 4.887-16.956 3.778 15.784-4.5 13.508h-13.215l-2.57-10.72h2.489zm-9.028-8.134l3.517 14.686v.002l-.018.004 3.311 13.83 4.344-1.04-.996-4.162h1.936l1.247 5.202 4.341-1.04-.996-4.162h7.248l2.117-1.528 5.21-15.638.054-1.226-5.894-24.646-4.32-.097-6.767 23.482h-8.864l-1.129-4.706-4.341 1.04zm16.154 119.745h-13.218l-4.5-13.507 3.778-15.787 4.89 16.958 2.145 1.614h2.404l-.602 2.638h-7.009v4.467h8.788l2.178-1.736 1.226-5.369h2.487l-2.567 10.722zm-11.995-38.667l-4.319.097-5.894 24.645.055 1.223 5.21 15.642 2.115 1.526h7.249l-.997 4.162 4.342 1.04 1.246-5.202h1.937l-.995 4.162 4.341 1.04 3.312-13.83-.019-.004v-.002l3.518-14.684-4.342-1.04-1.129 4.704h-8.862l-6.768-23.48zM436.559 44.901l1.226 5.37 2.176 1.735h8.788v-4.467h-7.007l-.602-2.638h2.404l2.146-1.613 4.89-16.959 3.773 15.788-4.499 13.507h-13.216l-2.566-10.723h2.487zm-9.026-8.13l3.517 14.685-.02.006 3.312 13.828 4.344-1.04-.998-4.16h1.938l1.245 5.2 4.343-1.04-.997-4.16h7.248l2.12-1.53 5.21-15.638.05-1.227-5.894-24.641-4.317-.1-6.77 23.48H433l-1.126-4.706-4.342 1.043z" fill="#C91F1F"/><g transform="translate(371.52)"><mask id="h" fill="#fff"><use xlink:href="#g"/></mask><path fill="#C91F1F" mask="url(#h)" d="M.582 37.594l4.955 5.09 1.598.676h15.537l-1.581 3.33-7.454.001v4.466h8.867l2.016-1.276 8.476-17.858.536-1.13 2.296-4.839-4.033-1.915-1.692 3.562H8.98v4.467h19.003l-.523 1.102-2.67 5.624H8.077l-3.331-3.427 11.87-33.974-.508-.717H4.706v2.212h6.656L.074 35.299z"/></g><path fill="#C91F1F" d="M462.947 222.5l-11.286-32.31h6.654v-4.466h-9.8l-2.107 2.97 11.868 33.976-3.332 3.424H438.23l-3.191-6.725h19.002v-4.466h-21.122l-1.69-3.563-4.035 1.915 6.185 13.034 1.422 2.996 3.7 7.797 2.018 1.276h8.865v-4.465h-7.454l-1.58-3.332h15.536l1.6-.677 4.953-5.09zm-8.737-100.15v-.001l2.433-5.124 3.393-7.252-2.023-3.179h-18.204c1.592-4.84 6.151-8.344 11.515-8.344 6.686 0 12.124 5.439 12.124 12.124 0 5.692-3.941 10.477-9.237 11.776m-2.887-28.367c-7.845 0-14.43 5.48-16.148 12.811h-1.652v4.465h20.979l-1.9 4.062-2.43 5.121-.016.033-1.055 2.225h-17.997l-4.203-7.569 14.728-33.165-2.04-3.139h-12.438v4.466h2.841l-4.257 8.971 4.033 1.915 5.166-10.886h1.22l-13.785 31.043.088 1.99 5.382 9.69 1.95 1.15h17.267l-1.857 4.007h-5.916v4.466h7.342l2.026-1.294 3.335-7.196c8.841-.349 15.927-7.649 15.927-16.575 0-9.148-7.442-16.59-16.59-16.59m-191.431 50.412c5.364 0 9.925 3.504 11.517 8.343h-18.204l-2.022 3.18 3.397 7.262 2.42 5.1.007.014c-5.296-1.298-9.237-6.083-9.237-11.775 0-6.685 5.438-12.124 12.122-12.124m-.661 28.698l3.335 7.196 2.026 1.294h7.342v-4.466h-5.916l-1.857-4.007h17.265l1.952-1.15 5.383-9.688.088-1.99-13.787-31.044h1.22l5.166 10.886 4.035-1.916-4.258-8.97h2.84v-4.467H271.63l-2.04 3.14 14.729 33.165-4.205 7.568h-17.997l-3.496-7.367-1.904-4.072h20.977v-4.467h-1.65c-1.718-7.332-8.303-12.81-16.15-12.81-9.146 0-16.588 7.443-16.588 16.591 0 8.927 7.086 16.225 15.927 16.574m21.217-73.03c.04-2.553.088-5.73-2.936-8.754l-3.157 3.157c1.686 1.69 1.663 3.3 1.628 5.53-.039 2.553-.086 5.73 2.938 8.754 3.025 3.025 6.201 2.978 8.754 2.94 2.23-.034 3.84-.059 5.53 1.63 1.688 1.688 1.663 3.299 1.628 5.529-.037 2.554-.086 5.73 2.939 8.755 3.025 3.026 6.202 2.978 8.754 2.938 2.229-.032 3.84-.057 5.529 1.632 1.689 1.689 1.665 3.3 1.63 5.53-.037 2.554-.085 5.731 2.939 8.755l3.158-3.157c-1.689-1.69-1.664-3.3-1.63-5.53.037-2.553.085-5.73-2.94-8.756-3.023-3.025-6.2-2.977-8.754-2.939-2.228.035-3.84.058-5.528-1.63-1.69-1.69-1.664-3.3-1.631-5.53.039-2.553.087-5.73-2.937-8.755-3.025-3.025-6.201-2.978-8.755-2.94-2.228.034-3.84.06-5.528-1.629-1.688-1.69-1.664-3.3-1.63-5.53m144.181 133.99c-2.388 0-3.51-1.157-5.063-2.756-1.778-1.833-3.99-4.113-8.267-4.113-4.277 0-6.49 2.28-8.268 4.113-1.552 1.6-2.675 2.756-5.064 2.756-2.387 0-3.509-1.157-5.06-2.758-1.779-1.832-3.991-4.113-8.267-4.113-4.278 0-6.49 2.281-8.268 4.113-1.552 1.601-2.675 2.758-5.063 2.758-2.387 0-3.509-1.157-5.06-2.756-1.78-1.834-3.991-4.115-8.269-4.115v4.467c2.388 0 3.51 1.157 5.063 2.758 1.778 1.832 3.99 4.113 8.266 4.113 4.278 0 6.49-2.281 8.268-4.113 1.552-1.601 2.675-2.758 5.063-2.758 2.386 0 3.509 1.157 5.06 2.758 1.78 1.832 3.99 4.113 8.267 4.113 4.279 0 6.49-2.281 8.268-4.113 1.553-1.601 2.675-2.757 5.064-2.757 2.388 0 3.51 1.156 5.062 2.757 1.778 1.832 3.99 4.113 8.268 4.113v-4.467zM333.393 25.62c-.038 2.553-.087 5.73 2.939 8.755 3.023 3.025 6.2 2.978 8.752 2.937 2.23-.033 3.841-.057 5.529 1.631 1.689 1.69 1.664 3.3 1.63 5.53-.037 2.553-.086 5.73 2.939 8.755 3.023 3.025 6.2 2.978 8.753 2.939 2.231-.033 3.841-.058 5.53 1.632 1.688 1.688 1.663 3.3 1.63 5.53-.038 2.552-.085 5.73 2.938 8.754l3.158-3.157c-1.688-1.69-1.665-3.301-1.632-5.531.04-2.553.088-5.73-2.937-8.755-3.024-3.025-6.2-2.979-8.753-2.939-2.229.035-3.841.057-5.53-1.63-1.688-1.69-1.664-3.3-1.63-5.53.039-2.553.086-5.73-2.938-8.755-3.025-3.025-6.2-2.978-8.754-2.939-2.228.033-3.84.058-5.528-1.63-1.688-1.689-1.664-3.3-1.63-5.53.038-2.553.086-5.73-2.938-8.754l-3.158 3.158c1.689 1.688 1.664 3.3 1.63 5.529m99.487 149.646c-2.553-.04-5.729-.087-8.753 2.938-3.025 3.024-2.977 6.201-2.937 8.754.033 2.23.057 3.842-1.631 5.53-1.689 1.689-3.3 1.664-5.529 1.63-2.551-.038-5.729-.087-8.753 2.938l3.158 3.159c1.687-1.69 3.299-1.667 5.528-1.631 2.553.039 5.73.087 8.753-2.938 3.024-3.025 2.976-6.201 2.938-8.755-.033-2.23-.058-3.841 1.63-5.53 1.689-1.687 3.298-1.662 5.53-1.63 2.552.04 5.729.087 8.752-2.939 3.025-3.024 2.977-6.2 2.938-8.754-.033-2.23-.057-3.841 1.632-5.53 1.688-1.69 3.298-1.664 5.529-1.631 2.551.038 5.73.086 8.753-2.94l-3.157-3.158c-1.688 1.69-3.3 1.665-5.528 1.632-2.553-.038-5.73-.086-8.755 2.94-3.024 3.023-2.977 6.2-2.94 8.754.035 2.23.059 3.84-1.629 5.53-1.689 1.689-3.3 1.665-5.529 1.63M409.916 77.03c-2.55-.039-5.729-.087-8.753 2.939-3.025 3.025-2.977 6.202-2.938 8.755.033 2.23.057 3.841-1.631 5.53-1.689 1.689-3.3 1.664-5.529 1.63-2.554-.038-5.729-.086-8.753 2.94-3.025 3.024-2.977 6.2-2.938 8.754.034 2.23.057 3.84-1.63 5.53-1.688 1.689-3.3 1.666-5.529 1.63-2.554-.04-5.73-.087-8.754 2.937l3.158 3.16c1.688-1.688 3.299-1.666 5.53-1.631 2.552.04 5.728.086 8.753-2.939 3.023-3.024 2.975-6.2 2.937-8.755-.033-2.229-.058-3.84 1.63-5.528 1.688-1.69 3.3-1.665 5.53-1.631 2.553.04 5.727.086 8.752-2.94 3.024-3.024 2.977-6.2 2.938-8.754-.033-2.23-.058-3.84 1.632-5.53 1.688-1.689 3.3-1.665 5.529-1.632 2.552.04 5.729.087 8.753-2.938l-3.157-3.158c-1.689 1.688-3.3 1.663-5.53 1.631m73.241 137.027l3.99 1.928v-10.11l-.029-.014zm-1.255-178.488l-3.963 8.194 4.02 1.945 3.961-8.195z"/><g transform="translate(330.667)"><mask id="j" fill="#fff"><use xlink:href="#i"/></mask><path d="M1.85.776H.71c.17.198.352.393.55.59l.59-.59z" fill="#C91F1F" mask="url(#j)"/></g><path fill="#C91F1F" d="M475.756 488h11.391v-2.279h-9.962zm-210.924-2.28h-31.22l-1.429 2.28h35.179l-.542-1.062z"/><g transform="translate(375.905 484.768)"><mask id="l" fill="#fff"><use xlink:href="#k"/></mask><path fill="#C91F1F" mask="url(#l)" d="M.32.98v2.252h11.4L10.122.981z"/></g><path d="M377.515 382.31h3.157l6.454 13.349 2.01 1.261h12.697v-4.467h-11.296l-4.906-10.144h18.177l13.242 25.958-10.069-4.715-.946-.213h-18.352l-10.168-21.03zm43.533 32.763l2.936-3.037-16.818-32.976-1.99-1.217h-31.222l-2.006 3.205h-.002l16.29 33.691 1.54-.744 2.481-1.2-1.16-2.398-1.254-2.591h2.052l3.351 6.933 4.02-1.944-2.411-4.989h8.684l15.51 7.267zM266.637 267.815l-.946-.21H247.34l-10.17-21.031h3.156l6.455 13.35 2.01 1.26h12.696v-4.466h-11.296l-4.904-10.144h18.176l13.241 25.958-10.067-4.717zm17.004 8.486l-16.821-32.975-1.988-1.218H233.61l-2.01 3.206 16.289 33.689 4.02-1.942-2.413-4.991h2.052l3.352 6.933 4.02-1.945-2.412-4.988h8.683l15.512 7.268 2.937-3.037zm85.141 56.41l-3.963-8.194-4.02 1.944 3.963 8.195zm33.272 130.999l4.02-1.944-3.96-8.194-4.022 1.944zm11.977-162.556l-4.02-1.946-3.962 8.196 4.02 1.942zm-52.505-43.162l-8.192-3.963-1.944 4.021 8.192 3.962zm-60.143 85.174l3.962-8.194-4.02-1.944-3.961 8.194zm52.738 55.588l-8.192-3.962-1.944 4.02 8.192 3.963zm-17.197 63.787l4.02 1.945 3.962-8.194-4.02-1.943zm-45.159-223.84l8.824 2.221 1.091-4.33-8.825-2.223zm120.971 127.213l-6.709-6.15-3.017 3.294 6.708 6.149zM239.85 354.27l6.71 6.15 3.017-3.293-6.71-6.15zm239.924 37.292l-4.02-1.945-3.961 8.195 4.02 1.943zm-47.581-133.501l-4.02-1.944-3.962 8.194 4.02 1.944zM272.606 471.866c-1.232 1.378-2.466 2.074-3.67 2.074-1.612 0-3.024-1.238-3.557-1.768-.547-.547-1.813-1.996-1.768-3.646.033-1.175.732-2.378 2.075-3.581 3.371-3.02 7.547-4.598 9.93-4.598.799 0 1.194.181 1.3.287.902.901-.07 6.494-4.31 11.232m3.01-15.985c-3.89 0-9.077 2.306-12.908 5.734-2.296 2.055-3.493 4.338-3.561 6.785-.09 3.265 1.887 5.744 3.075 6.93 1.15 1.148 3.549 3.075 6.714 3.075 2.526 0 4.88-1.197 6.998-3.559 4.803-5.37 7.685-13.822 4.14-17.372-.729-.725-2.092-1.593-4.459-1.593m63.101-83.354c-4.24-4.738-5.213-10.33-4.31-11.233.108-.109.5-.286 1.3-.286 2.382 0 6.558 1.578 9.932 4.597 1.343 1.2 2.04 2.408 2.071 3.578.047 1.65-1.22 3.1-1.767 3.647-.53.533-1.942 1.772-3.558 1.772-1.203 0-2.436-.7-3.668-2.075m10.385 3.463c1.186-1.19 3.166-3.666 3.073-6.93-.068-2.449-1.266-4.73-3.56-6.783-3.832-3.432-9.02-5.738-12.909-5.738-2.365 0-3.73.868-4.458 1.595-3.545 3.547-.663 12 4.143 17.372 2.114 2.364 4.469 3.56 6.994 3.56 3.166 0 5.566-1.928 6.717-3.076m124.063 42.802c-3.547 3.547-.665 12 4.141 17.371 2.115 2.364 4.468 3.562 6.995 3.562a8.14 8.14 0 0 0 2.847-.525v-5.085c-.7.544-1.725 1.143-2.847 1.143-1.203 0-2.435-.699-3.668-2.075-4.24-4.74-5.214-10.328-4.309-11.234.106-.107.499-.287 1.298-.287 2.288 0 6.232 1.459 9.526 4.244v-5.504c-3.183-1.986-6.696-3.205-9.526-3.205-2.367 0-3.73.867-4.457 1.595m-117.306 4.197c.802-.803 2.245-1.227 4.177-1.227 3.805 0 8.775 1.624 13.506 4.238h.003l-3.262.857-1.664 2.066-.253 6.006-7.175 1.698-1.665 1.685-.57 2.55c-1.399-2.5-2.53-5.103-3.298-7.647-1.438-4.746-1.36-8.665.2-10.226m30.419 17.3c.11 4.019-2.578 7.322-4.19 8.935-1.564 1.563-4.778 4.19-8.693 4.19-3.067 0-6.096-1.644-9-4.89a40.167 40.167 0 0 1-2.026-2.456l1.211-5.416 7.46-1.765 1.717-2.08.255-6.05 5.626-1.476a39.123 39.123 0 0 1 2.75 2.244c3.163 2.831 4.807 5.778 4.89 8.763m-12.883 17.593c5.525 0 9.8-3.447 11.852-5.501 2.12-2.12 5.652-6.525 5.494-12.215-.118-4.26-2.263-8.285-6.373-11.966-7.172-6.419-17.176-10.903-24.331-10.903-3.186 0-5.655.851-7.336 2.535-2.85 2.852-3.318 8.062-1.318 14.676 1.796 5.93 5.324 12.124 9.684 16.995 3.79 4.232 7.938 6.38 12.328 6.38" fill="#C91F1F"/><g transform="translate(471.767 305.943)"><mask id="n" fill="#fff"><use xlink:href="#m"/></mask><path d="M.374 15.08c-.109 4.007 2.344 7.075 3.816 8.549 1.426 1.423 4.4 3.815 8.285 3.815a9.49 9.49 0 0 0 2.906-.455V22.1c-.966.585-1.936.877-2.906.877-2.276 0-4.189-1.574-5.126-2.51-.966-.966-2.575-2.931-2.51-5.266.05-1.723 1.035-3.463 2.934-5.162C10 8.047 12.739 6.356 15.38 5.25V.473C11.743 1.7 7.922 3.914 4.794 6.712 1.947 9.261.457 12.076.374 15.08" fill="#C91F1F" mask="url(#n)"/></g><path d="M324.598 335.056l-2.57-10.719h2.49l1.225 5.367 2.177 1.737h8.787v-4.468h-7.008l-.602-2.636h2.406l2.145-1.616 4.886-16.956 3.779 15.788-4.5 13.503h-13.215zm16.941 2.94l5.21-15.639.055-1.227-5.894-24.642-4.32-.1-6.767 23.482h-8.864l-1.128-4.707-4.342 1.041 3.518 14.687v.001l-.019.005 3.311 13.83 4.343-1.041-.996-4.164h1.936l1.248 5.205 4.342-1.041-.997-4.164h7.248l2.116-1.526zm-27.614 84.446l3.778-15.784 4.89 16.956 2.145 1.615h2.404l-.602 2.637h-7.009v4.466h8.788l2.178-1.737 1.225-5.366h2.488l-2.567 10.72h-13.218l-4.5-13.507zm26.824-5.346l-4.342-1.04-1.129 4.706h-8.861l-6.77-23.48-4.318.098-5.895 24.643.055 1.227 5.21 15.638 2.117 1.527h7.247l-.996 4.162 4.343 1.04 1.246-5.202h1.937l-.997 4.162 4.342 1.04 3.312-13.829-.018-.005v-.003l3.517-14.684zm95.89-117.86l-2.567-10.72h2.487l1.226 5.366 2.176 1.737h8.788v-4.467h-7.007l-.602-2.636h2.404l2.145-1.616 4.89-16.956 3.775 15.785-4.5 13.507H436.64zm16.944 2.94l5.21-15.64.052-1.226-5.894-24.644-4.317-.098-6.77 23.482H433l-1.125-4.707-4.343 1.04 3.518 14.685v.001l-.02.006 3.311 13.83 4.343-1.041-.996-4.162h1.936l1.247 5.202 4.342-1.04-.997-4.162h7.248l2.118-1.526zm-81.48-20.969l4.953 5.09 1.6.676h15.536l-1.582 3.33-7.453.001v4.466h8.866l2.017-1.276 4.038-8.507 4.974-10.481 2.296-4.839-4.034-1.914-1.692 3.562H380.5v4.467h19.003l-1.867 3.932-1.325 2.793h-16.713l-3.333-3.426 11.87-33.976-2.108-2.97h-9.801v4.467h6.656l-11.288 32.31zm86.212 152.595v-4.466h-9.8l-2.108 2.97 11.87 33.977-3.333 3.425H438.23l-3.192-6.726h19.002v-4.466h-21.12l-1.69-3.563-4.035 1.916 11.307 23.827 2.018 1.275h8.865v-4.466h-7.454l-1.58-3.331h15.536l1.6-.676 4.953-5.09.509-2.294-11.288-32.312zm-4.105-67.84l.002-.001 2.43-5.123 3.394-7.252-2.023-3.18h-18.204c1.592-4.84 6.152-8.344 11.515-8.344 6.686 0 12.124 5.439 12.124 12.126 0 5.692-3.941 10.476-9.237 11.774m-2.887-28.365c-7.845 0-14.43 5.478-16.148 12.81h-1.652v4.466h20.979l-1.9 4.061-2.43 5.12-.015.034-1.056 2.224h-17.997l-4.203-7.568 14.728-33.164-2.04-3.14h-12.438v4.466h2.841l-4.257 8.97 4.033 1.917 5.166-10.887h1.22l-13.785 31.043.088 1.991 5.382 9.69 1.95 1.149h17.267l-1.857 4.006h-5.916v4.467h7.342l2.026-1.294 3.335-7.197c8.841-.348 15.927-7.647 15.927-16.573 0-9.149-7.442-16.591-16.59-16.591M247.77 400.133c0-6.685 5.439-12.124 12.123-12.124 5.364 0 9.925 3.504 11.517 8.342h-18.204l-2.022 3.18 3.397 7.263 2.42 5.1.007.014c-5.296-1.298-9.237-6.084-9.237-11.775zm28.513-27.282l5.166 10.886 4.035-1.915-4.258-8.971h2.84v-4.466h-12.438l-2.04 3.139 14.73 33.165-4.205 7.57h-17.996l-3.497-7.37-1.904-4.07h20.978v-4.468h-1.652c-1.715-7.33-8.302-12.808-16.149-12.808-9.146 0-16.588 7.442-16.588 16.59 0 8.927 7.086 16.225 15.927 16.574l3.335 7.195 2.026 1.295h7.342v-4.466h-5.916l-1.857-4.007h17.265l1.952-1.148 5.383-9.69.088-1.992-13.787-31.043h1.22zm21.491-1.633c3.025 3.026 6.202 2.979 8.754 2.939 2.229-.034 3.84-.057 5.529 1.63 1.689 1.69 1.665 3.301 1.63 5.531-.037 2.553-.085 5.73 2.939 8.755l3.158-3.158c-1.689-1.688-1.664-3.3-1.63-5.53.037-2.553.085-5.73-2.94-8.754-3.023-3.026-6.2-2.977-8.754-2.94-2.228.035-3.84.059-5.528-1.632-1.69-1.688-1.664-3.298-1.631-5.528.039-2.553.087-5.731-2.937-8.755-3.025-3.025-6.201-2.978-8.755-2.939-2.228.033-3.84.06-5.528-1.63-1.688-1.689-1.664-3.3-1.63-5.53.039-2.553.087-5.73-2.937-8.754l-3.157 3.157c1.686 1.69 1.663 3.3 1.628 5.53-.039 2.553-.086 5.73 2.938 8.755 3.025 3.025 6.201 2.977 8.754 2.939 2.23-.034 3.84-.059 5.53 1.63 1.688 1.689 1.663 3.3 1.628 5.529-.037 2.553-.086 5.73 2.939 8.755" fill="#C91F1F"/><g transform="translate(288.66 433.06)"><mask id="p" fill="#fff"><use xlink:href="#o"/></mask><path d="M44.792 46.846c.038-2.554.086-5.73-2.939-8.754-3.023-3.028-6.198-2.978-8.752-2.94-2.232.036-3.843.056-5.53-1.63-1.69-1.689-1.664-3.3-1.63-5.532.037-2.55.087-5.73-2.939-8.754-3.025-3.024-6.2-2.978-8.754-2.938-2.23.035-3.84.057-5.526-1.63-1.691-1.689-1.664-3.301-1.633-5.53.039-2.553.086-5.73-2.937-8.755L.994 3.54c1.69 1.687 1.664 3.299 1.63 5.529-.038 2.553-.087 5.732 2.94 8.757 3.024 3.024 6.2 2.976 8.752 2.938 2.229-.035 3.84-.059 5.528 1.63 1.689 1.689 1.666 3.298 1.633 5.53-.041 2.551-.087 5.73 2.936 8.754 3.024 3.025 6.2 2.976 8.753 2.939 2.229-.033 3.84-.058 5.53 1.632 1.687 1.687 1.664 3.298 1.63 5.528-.035 2.385-.079 5.32 2.388 8.163h1.146l2.563-2.564c-1.69-1.691-1.666-3.303-1.631-5.53" fill="#C91F1F" mask="url(#p)"/></g><path d="M419.57 474.91c-1.778-1.832-3.991-4.112-8.269-4.112-4.276 0-6.489 2.28-8.267 4.113-1.552 1.6-2.675 2.757-5.064 2.757-2.388 0-3.509-1.157-5.061-2.758-1.777-1.833-3.99-4.112-8.267-4.112-4.276 0-6.49 2.28-8.267 4.112-1.553 1.6-2.675 2.758-5.063 2.758s-3.509-1.157-5.061-2.757c-1.777-1.834-3.99-4.113-8.268-4.113v4.465c2.388 0 3.51 1.156 5.063 2.758 1.778 1.832 3.99 4.112 8.266 4.112 4.277 0 6.49-2.28 8.268-4.113 1.552-1.601 2.674-2.757 5.062-2.757 2.387 0 3.51 1.156 5.062 2.757 1.778 1.833 3.99 4.113 8.266 4.113 4.278 0 6.49-2.28 8.268-4.112 1.553-1.602 2.674-2.758 5.063-2.758 2.388 0 3.51 1.156 5.063 2.758 1.778 1.832 3.99 4.112 8.268 4.112v-4.465c-2.388 0-3.51-1.157-5.063-2.757M363.936 299.78c2.23-.032 3.84-.058 5.529 1.63 1.687 1.69 1.664 3.302 1.63 5.53-.038 2.555-.086 5.732 2.939 8.755l3.158-3.156c-1.69-1.69-1.666-3.3-1.632-5.53.039-2.554.086-5.73-2.938-8.756s-6.2-2.98-8.753-2.94c-2.23.036-3.842.059-5.53-1.63-1.689-1.69-1.664-3.3-1.63-5.53.038-2.552.086-5.729-2.939-8.755-3.023-3.025-6.2-2.977-8.752-2.938-2.23.034-3.841.059-5.529-1.63-1.689-1.69-1.664-3.3-1.63-5.53.037-2.552.086-5.73-2.938-8.755l-3.158 3.16c1.688 1.688 1.664 3.298 1.63 5.528-.039 2.553-.086 5.73 2.938 8.755 3.025 3.024 6.2 2.978 8.754 2.938 2.228-.034 3.84-.059 5.528 1.63 1.688 1.689 1.664 3.3 1.631 5.531-.039 2.552-.087 5.73 2.937 8.753 3.025 3.026 6.202 2.979 8.755 2.94m63.349 125.195c1.687-1.688 3.298-1.663 5.528-1.631 2.553.04 5.73.087 8.754-2.938 3.023-3.025 2.976-6.203 2.937-8.755-.033-2.23-.056-3.842 1.632-5.53 1.688-1.69 3.298-1.665 5.53-1.632 2.55.04 5.729.086 8.753-2.938l-3.158-3.159c-1.688 1.69-3.3 1.665-5.529 1.631-2.552-.037-5.73-.085-8.754 2.94-3.024 3.024-2.976 6.202-2.939 8.755.034 2.23.059 3.84-1.63 5.53-1.688 1.69-3.3 1.665-5.529 1.63-2.554-.04-5.729-.086-8.753 2.938-3.024 3.025-2.977 6.202-2.938 8.755.034 2.231.058 3.842-1.63 5.53-1.688 1.689-3.299 1.664-5.53 1.63-2.55-.037-5.728-.085-8.753 2.938l3.158 3.159c1.688-1.688 3.3-1.666 5.53-1.63 2.552.038 5.728.085 8.753-2.939 3.023-3.025 2.975-6.201 2.937-8.755-.034-2.23-.057-3.841 1.63-5.53m-17.368-104.332c-2.55-.037-5.729-.086-8.753 2.94-3.025 3.024-2.977 6.201-2.938 8.755.033 2.23.057 3.84-1.631 5.53-1.689 1.689-3.3 1.664-5.529 1.63-2.554-.038-5.729-.085-8.753 2.938-3.025 3.026-2.977 6.203-2.938 8.755.034 2.231.057 3.842-1.63 5.53-1.688 1.69-3.3 1.666-5.529 1.63-2.554-.039-5.73-.085-8.754 2.939l3.158 3.158c1.688-1.688 3.299-1.664 5.53-1.63 2.552.041 5.728.086 8.753-2.939 3.023-3.024 2.975-6.201 2.937-8.754-.033-2.23-.058-3.842 1.63-5.53 1.688-1.688 3.3-1.664 5.53-1.631 2.553.04 5.727.087 8.752-2.938 3.024-3.025 2.977-6.203 2.938-8.756-.033-2.229-.058-3.84 1.632-5.53 1.688-1.687 3.3-1.664 5.529-1.63 2.552.04 5.729.086 8.753-2.939l-3.157-3.159c-1.689 1.69-3.3 1.665-5.53 1.631m73.241 137.026l3.99 1.932v-10.11l-.029-.014zm-1.255-178.487l-3.963 8.194 4.02 1.946 3.961-8.194zM292.813 189.83l-3.158 3.158c1.689 1.688 1.664 3.299 1.63 5.529-.038 2.553-.086 5.73 2.94 8.755 3.022 3.025 6.2 2.977 8.753 2.938 2.228-.032 3.84-.058 5.527 1.631 1.69 1.688 1.664 3.3 1.631 5.53-.039 2.553-.086 5.729 2.938 8.754 3.024 3.025 6.199 2.977 8.753 2.939 2.23-.033 3.84-.058 5.53 1.632 1.688 1.689 1.664 3.3 1.63 5.53-.037 2.552-.085 5.73 2.939 8.754l3.158-3.157c-1.688-1.69-1.666-3.3-1.632-5.53.04-2.553.087-5.73-2.937-8.756-3.026-3.024-6.201-2.976-8.754-2.939-2.23.036-3.84.058-5.53-1.63-1.688-1.69-1.664-3.3-1.63-5.53.038-2.553.087-5.73-2.938-8.755-3.025-3.025-6.202-2.978-8.753-2.939-2.229.036-3.84.06-5.529-1.63-1.689-1.689-1.664-3.3-1.63-5.53.038-2.553.087-5.73-2.938-8.754m-129.405-29.893l-.947-.21h-18.35l-10.17-21.03h3.156l6.454 13.349 2.011 1.26h12.696v-4.465h-11.296l-4.904-10.144h18.177l13.239 25.958-10.066-4.718zm-1.807-25.706h-31.22l-2.01 3.204 7.067 14.617 9.224 19.074 1.607-.778 2.412-1.166-2.411-4.988h2.05l3.352 6.931 4.02-1.943-2.412-4.988h8.685l15.51 7.264 2.935-3.037-16.818-32.972-1.991-1.218z" fill="#C91F1F"/><mask id="r" fill="#fff"><use xlink:href="#q"/></mask><path fill="#C91F1F" mask="url(#r)" d="M8.335 33.446l-2.412-4.988h2.052l3.351 6.932 4.02-1.944-2.41-4.988h8.683l15.51 7.265 2.936-3.037L23.788.776H0V9.68l3.205 6.629 2.01 1.263h12.699v-4.466H6.617L1.713 2.962H19.89L33.13 28.92l-10.067-4.718-.948-.208H3.764L0 16.208v10.256l4.316 8.927z"/><path fill="#C91F1F" d="M125.207 89.098l-3.962-8.193-4.02 1.943 3.963 8.195zm33.331 120.862l-4.02 1.944 3.96 8.194 4.021-1.945zm7.957-144.225l3.961-8.194-4.02-1.946-3.961 8.195zm-48.543-51.356l-8.193-3.963-1.944 4.021 8.193 3.962zM61.77 91.359l-4.02-1.944-3.962 8.193 4.02 1.945zm38.64 63.841l8.192 3.962 1.944-4.02-8.192-3.962zm-7.06 63.729l4.02 1.944 3.961-8.194-4.02-1.945zM67.593 8.116l-4.02-1.945-3.962 8.195 4.02 1.943zM32.476 54.41l-4.02 1.945 3.962 8.194 4.02-1.945zm136.685 67.89l-6.709-6.149-3.017 3.294 6.71 6.149z"/><g transform="translate(0 107.726)"><mask id="t" fill="#fff"><use xlink:href="#s"/></mask><path fill="#C91F1F" mask="url(#t)" d="M6.004 5.788L0 .285v6.059l2.985 2.735z"/></g><path fill="#C91F1F" d="M236.2 147.949l-4.02-1.944-3.963 8.193 4.02 1.945zM188.619 14.448l-4.02-1.944-3.963 8.195 4.021 1.943zM59.528 36.284c.109-.11.5-.286 1.3-.286 2.384 0 6.56 1.578 9.934 4.598 1.34 1.2 2.039 2.406 2.07 3.578.046 1.65-1.22 3.102-1.767 3.646-.532.534-1.941 1.77-3.557 1.77-1.203 0-2.437-.698-3.67-2.073-4.239-4.738-5.212-10.33-4.31-11.233m7.98 17.773c3.165 0 5.565-1.928 6.714-3.077 1.189-1.189 3.165-3.667 3.076-6.93-.07-2.448-1.266-4.729-3.561-6.783-3.832-3.432-9.02-5.739-12.91-5.739-2.364 0-3.728.869-4.456 1.597-3.546 3.546-.664 12.003 4.142 17.37 2.114 2.364 4.468 3.562 6.995 3.562M29.03 228.255c-1.233 1.374-2.464 2.073-3.667 2.073-1.615 0-3.028-1.238-3.557-1.77-.548-.548-1.813-1.997-1.768-3.647.032-1.171.728-2.378 2.071-3.578 3.372-3.02 7.55-4.598 9.933-4.598.8 0 1.191.178 1.298.287.905.903-.069 6.494-4.31 11.233m3.012-15.986c-3.89 0-9.079 2.303-12.91 5.735-2.293 2.055-3.49 4.334-3.559 6.784-.089 3.263 1.888 5.74 3.073 6.93 1.149 1.148 3.552 3.075 6.717 3.075 2.526 0 4.88-1.196 6.995-3.56 4.806-5.371 7.687-13.824 4.141-17.37-.727-.729-2.09-1.594-4.457-1.594m70.327-83.051c-.534.534-1.946 1.771-3.558 1.771-1.203 0-2.438-.699-3.669-2.074-4.24-4.741-5.213-10.33-4.31-11.235.105-.107.5-.287 1.3-.287 2.382 0 6.558 1.58 9.93 4.598 1.344 1.203 2.042 2.406 2.074 3.58.045 1.65-1.22 3.1-1.767 3.647m2.672-10.554c-3.832-3.43-9.02-5.737-12.91-5.737-2.365 0-3.73.868-4.456 1.595-3.546 3.547-.665 12.001 4.14 17.37 2.116 2.363 4.47 3.563 6.996 3.563 3.166 0 5.565-1.928 6.715-3.08 1.188-1.185 3.164-3.664 3.076-6.93-.07-2.446-1.267-4.73-3.561-6.78m127.706 59.671c.105-.105.5-.286 1.3-.286 2.382 0 6.56 1.58 9.93 4.598 1.344 1.203 2.043 2.406 2.074 3.58.045 1.65-1.22 3.1-1.767 3.648-.534.533-1.945 1.768-3.558 1.768-1.202 0-2.437-.696-3.669-2.075-4.24-4.738-5.213-10.327-4.31-11.233m7.979 17.776c3.165 0 5.566-1.931 6.714-3.08 1.19-1.185 3.166-3.663 3.077-6.93-.07-2.446-1.266-4.729-3.561-6.783-3.833-3.429-9.02-5.735-12.91-5.735-2.364 0-3.728.868-4.456 1.596-3.546 3.546-.664 12 4.14 17.368 2.116 2.363 4.47 3.564 6.996 3.564m-128.444-16.736c.802-.804 2.248-1.229 4.179-1.229 3.806 0 8.776 1.628 13.508 4.24l-3.262.857-1.664 2.066-.252 6.007-7.174 1.696-1.667 1.686-.57 2.552c-1.4-2.503-2.528-5.105-3.299-7.647-1.435-4.75-1.358-8.669.2-10.228m30.419 17.298c.112 4.02-2.574 7.324-4.188 8.935-1.566 1.567-4.778 4.194-8.692 4.194-3.068 0-6.095-1.648-9.002-4.893a40.796 40.796 0 0 1-2.026-2.452v-.001l1.211-5.419 7.461-1.765 1.717-2.079.254-6.05 5.622-1.475v.002c.96.71 1.883 1.463 2.757 2.243 3.16 2.83 4.806 5.777 4.886 8.76m-12.88 17.595c5.524 0 9.795-3.447 11.85-5.5 2.119-2.12 5.653-6.526 5.496-12.219-.118-4.256-2.263-8.284-6.377-11.966-7.168-6.42-17.174-10.903-24.328-10.903-3.185 0-5.655.854-7.336 2.536-2.85 2.85-3.32 8.064-1.318 14.678 1.794 5.928 5.322 12.12 9.685 16.993 3.787 4.235 7.937 6.38 12.328 6.38m106.146-141.9c3.998-3.578 9.644-6.176 13.425-6.176 1.019 0 1.813.21 2.179.573.66.658.894 2.739-.063 5.904-1.005 3.323-3.076 6.949-5.54 9.704-1.743 1.947-3.528 2.935-5.3 2.935-2.278 0-4.19-1.573-5.128-2.51-.965-.964-2.572-2.93-2.51-5.266.05-1.726 1.038-3.462 2.937-5.164m4.7 17.406c3.1 0 6-1.487 8.628-4.423 2.921-3.263 5.284-7.415 6.486-11.388 1.392-4.606 1.021-8.284-1.053-10.355-1.232-1.232-3.075-1.882-5.336-1.882-4.924 0-11.514 2.939-16.404 7.317-2.85 2.55-4.337 5.365-4.42 8.367-.112 4.005 2.344 7.073 3.815 8.546 1.428 1.426 4.397 3.818 8.284 3.818M80.942 80.725l1.227 5.367 2.177 1.735h8.787v-4.466h-7.008l-.602-2.636h2.404l2.146-1.616 4.888-16.956 3.776 15.784-4.5 13.508H81.022l-2.567-10.72h2.487zm-9.026-8.134l3.517 14.686-.019.006 3.311 13.83 4.343-1.04-.996-4.162h1.936l1.247 5.202 4.343-1.04-.997-4.162h7.246l2.12-1.528 5.21-15.638.051-1.226-5.895-24.646-4.317-.097-6.767 23.482h-8.862l-1.13-4.706-4.341 1.04zm16.151 119.745H74.851l-4.499-13.507 3.775-15.787L79.017 180l2.145 1.614h2.405l-.602 2.638h-7.008v4.467h8.788l2.177-1.736 1.226-5.369h2.488l-2.569 10.722zM76.072 153.67l-4.317.097-5.894 24.645.055 1.223 5.21 15.642 2.116 1.526h7.247l-.997 4.162 4.343 1.04 1.246-5.202h1.937l-.996 4.162 4.343 1.04 3.312-13.83-.022-.005 3.518-14.685-4.343-1.04-1.125 4.704h-8.863l-6.77-23.48zM192.984 44.901l1.227 5.37 2.177 1.735h8.787v-4.467h-7.008l-.603-2.638h2.404l2.146-1.613 4.889-16.959 3.778 15.788-4.5 13.507h-13.216l-2.57-10.723h2.49zm-9.027-8.13l3.517 14.685v.001l-.018.005 3.312 13.828 4.342-1.04-.996-4.16h1.938l1.245 5.2 4.343-1.04-.997-4.16h7.247l2.118-1.53 5.21-15.638.053-1.227-5.893-24.641-4.32-.1-6.769 23.48h-8.861l-1.126-4.706-4.345 1.043z"/><g transform="translate(127.097)"><mask id="v" fill="#fff"><use xlink:href="#u"/></mask><path fill="#C91F1F" mask="url(#v)" d="M1.43 37.594l4.953 5.09 1.6.676H23.52l-1.58 3.33-7.454.001v4.466h8.866l2.016-1.276 3.7-7.796 5.313-11.192 2.295-4.839-4.033-1.915-1.691 3.562H9.829v4.467h19l-3.19 6.726H8.926l-3.33-3.427L17.462 1.493l-.507-.717h-11.4v2.212h6.654L.924 35.299z"/></g><path fill="#C91F1F" d="M219.373 222.5l-11.287-32.31h6.654v-4.466h-9.8l-2.107 2.97L214.7 222.67l-3.332 3.424h-16.714l-3.191-6.725h19.003v-4.466h-21.123l-1.69-3.563-4.035 1.915 11.308 23.827 2.017 1.276h8.866v-4.465h-7.454l-1.58-3.332h15.536l1.6-.677 4.953-5.09zm-8.737-100.15l.005-.01 2.428-5.115 3.392-7.252-2.022-3.179h-18.204c1.593-4.84 6.15-8.344 11.516-8.344 6.684 0 12.123 5.439 12.123 12.124 0 5.692-3.942 10.477-9.238 11.776m-2.885-28.367c-7.846 0-14.433 5.48-16.149 12.811h-1.652v4.465h20.978l-1.9 4.062-2.43 5.121-.015.032-1.055 2.226H187.53l-4.203-7.569 14.728-33.165-2.04-3.139h-12.438v4.466h2.841l-4.258 8.971 4.034 1.915 5.167-10.886h1.22l-13.788 31.043.09 1.99 5.38 9.69 1.954 1.15h17.264l-1.857 4.007h-5.915v4.466h7.342l2.024-1.294 3.336-7.196c8.841-.349 15.927-7.649 15.927-16.575 0-9.148-7.441-16.59-16.588-16.59M16.32 144.396c5.365 0 9.924 3.502 11.517 8.343H9.632l-2.023 3.18 3.398 7.262 2.413 5.085.014.03h-.001c-5.296-1.298-9.237-6.084-9.237-11.777 0-6.683 5.44-12.123 12.125-12.123m-.662 28.701l3.334 7.193 2.026 1.294h7.341v-4.466h-5.915l-1.858-4.007h17.266l1.951-1.15 5.383-9.688.088-1.99-13.786-31.044h1.219l5.167 10.886 4.034-1.916-4.258-8.97h2.842v-4.467H28.054l-2.04 3.14 14.729 33.165-4.204 7.568H18.543l-3.497-7.367-1.905-4.072H34.12v-4.467h-1.648c-1.713-7.333-8.307-12.81-16.151-12.81-8.132 0-14.915 5.881-16.32 13.61v5.96c1.365 7.522 7.821 13.291 15.658 13.598m21.217-73.033c.04-2.553.088-5.73-2.937-8.754l-3.158 3.157c1.689 1.69 1.664 3.3 1.63 5.53-.038 2.553-.086 5.73 2.938 8.754 3.024 3.025 6.2 2.978 8.754 2.94 2.23-.034 3.84-.059 5.53 1.63 1.687 1.688 1.662 3.299 1.629 5.529-.039 2.554-.087 5.73 2.937 8.755 3.025 3.026 6.202 2.978 8.755 2.938 2.228-.032 3.84-.057 5.529 1.632 1.688 1.689 1.664 3.3 1.63 5.53-.037 2.554-.085 5.731 2.939 8.755l3.158-3.157c-1.69-1.69-1.665-3.3-1.631-5.53.039-2.553.085-5.73-2.94-8.756-3.023-3.025-6.2-2.977-8.753-2.939-2.227.035-3.84.058-5.529-1.63-1.689-1.69-1.664-3.3-1.63-5.53.038-2.553.087-5.73-2.938-8.755-3.024-3.025-6.2-2.978-8.754-2.94-2.229.034-3.84.06-5.528-1.629-1.689-1.69-1.664-3.3-1.63-5.53m12.362 89.766l-3.158 3.158c1.689 1.688 1.664 3.299 1.63 5.529-.038 2.553-.087 5.73 2.938 8.755 3.024 3.025 6.202 2.977 8.753 2.938 2.229-.032 3.84-.058 5.529 1.631 1.688 1.688 1.664 3.3 1.63 5.53-.038 2.553-.087 5.729 2.938 8.754 3.024 3.025 6.2 2.977 8.753 2.939 2.23-.033 3.841-.058 5.53 1.632 1.69 1.689 1.664 3.3 1.63 5.53-.037 2.552-.085 5.73 2.94 8.754l3.157-3.157c-1.689-1.69-1.664-3.3-1.63-5.53.038-2.553.086-5.73-2.939-8.756-3.024-3.024-6.2-2.976-8.754-2.939-2.23.036-3.84.058-5.53-1.63-1.688-1.69-1.663-3.3-1.63-5.53.039-2.553.087-5.73-2.938-8.755-3.024-3.025-6.201-2.978-8.753-2.939-2.23.036-3.84.06-5.528-1.63-1.69-1.689-1.664-3.3-1.631-5.53.039-2.553.087-5.73-2.937-8.754m131.818 44.224c-2.387 0-3.51-1.157-5.062-2.756-1.778-1.833-3.99-4.113-8.268-4.113-4.277 0-6.49 2.28-8.267 4.113-1.554 1.6-2.676 2.756-5.063 2.756-2.388 0-3.51-1.157-5.063-2.758-1.777-1.832-3.99-4.113-8.266-4.113-4.277 0-6.49 2.281-8.268 4.113-1.553 1.601-2.674 2.758-5.062 2.758-2.388 0-3.51-1.157-5.061-2.756-1.778-1.834-3.99-4.115-8.268-4.115v4.467c2.388 0 3.51 1.157 5.062 2.758 1.779 1.832 3.99 4.113 8.267 4.113 4.277 0 6.49-2.281 8.268-4.113 1.552-1.601 2.674-2.758 5.062-2.758 2.387 0 3.508 1.157 5.061 2.758 1.779 1.832 3.99 4.113 8.268 4.113 4.276 0 6.489-2.281 8.267-4.113 1.553-1.601 2.675-2.757 5.063-2.757s3.51 1.156 5.063 2.757c1.778 1.832 3.99 4.113 8.267 4.113v-4.467zM89.819 25.62c-.04 2.553-.087 5.73 2.938 8.755 3.024 3.025 6.2 2.978 8.753 2.937 2.229-.033 3.84-.057 5.53 1.631 1.687 1.69 1.663 3.3 1.629 5.53-.038 2.553-.086 5.73 2.938 8.755 3.025 3.025 6.202 2.978 8.754 2.939 2.23-.033 3.84-.058 5.53 1.632 1.687 1.688 1.663 3.3 1.63 5.53-.039 2.552-.086 5.73 2.938 8.754l3.158-3.157c-1.688-1.69-1.665-3.301-1.631-5.531.038-2.553.086-5.73-2.939-8.755-3.024-3.025-6.2-2.979-8.753-2.939-2.229.035-3.84.057-5.529-1.63-1.689-1.69-1.665-3.3-1.632-5.53.04-2.553.088-5.73-2.937-8.755-3.023-3.025-6.2-2.978-8.753-2.939-2.229.033-3.84.058-5.528-1.63-1.689-1.689-1.665-3.3-1.63-5.53.038-2.553.085-5.73-2.94-8.754L88.19 20.09c1.688 1.688 1.663 3.3 1.63 5.529m99.485 149.647c-2.553-.04-5.729-.087-8.752 2.938-3.026 3.024-2.977 6.201-2.938 8.754.033 2.23.058 3.842-1.631 5.53-1.688 1.689-3.298 1.664-5.528 1.63-2.552-.038-5.729-.087-8.753 2.938l3.157 3.159c1.689-1.69 3.3-1.667 5.528-1.631 2.553.039 5.73.087 8.754-2.938 3.025-3.025 2.976-6.201 2.938-8.755-.034-2.23-.059-3.841 1.63-5.53 1.688-1.687 3.298-1.662 5.529-1.63 2.552.04 5.729.087 8.753-2.939 3.025-3.024 2.977-6.2 2.939-8.754-.034-2.23-.059-3.841 1.63-5.53 1.69-1.69 3.3-1.664 5.529-1.631 2.552.038 5.73.086 8.755-2.94l-3.158-3.158c-1.69 1.69-3.3 1.665-5.53 1.632-2.552-.038-5.728-.086-8.754 2.94-3.024 3.023-2.976 6.2-2.938 8.754.033 2.23.058 3.84-1.63 5.53-1.69 1.689-3.301 1.665-5.53 1.63M166.342 77.03c-2.552-.039-5.729-.087-8.753 2.939-3.025 3.025-2.978 6.202-2.939 8.755.034 2.23.057 3.841-1.632 5.53-1.687 1.689-3.298 1.664-5.527 1.63-2.554-.038-5.73-.086-8.754 2.94-3.024 3.024-2.977 6.2-2.937 8.754.033 2.23.057 3.84-1.632 5.53-1.688 1.689-3.298 1.666-5.527 1.63-2.554-.04-5.73-.087-8.754 2.937l3.158 3.16c1.688-1.688 3.298-1.666 5.528-1.631 2.554.04 5.729.086 8.753-2.939 3.025-3.024 2.976-6.2 2.939-8.755-.035-2.229-.059-3.84 1.63-5.528 1.688-1.69 3.3-1.665 5.528-1.631 2.554.04 5.729.086 8.753-2.94 3.025-3.024 2.978-6.2 2.939-8.754-.034-2.23-.057-3.84 1.632-5.53 1.687-1.689 3.3-1.665 5.528-1.632 2.552.04 5.73.087 8.754-2.938l-3.157-3.158c-1.689 1.688-3.3 1.663-5.53 1.631m76.461 130.315l-3.962 8.194 4.02 1.944 3.962-8.193zm-4.418-161.638l3.962-8.193-4.02-1.946-3.961 8.195zM6.94 186.102c-.065-2.446-1.263-4.729-3.557-6.783A24.51 24.51 0 0 0 0 176.789v5.51c.136.112.269.23.403.349 1.344 1.203 2.04 2.406 2.074 3.58.045 1.65-1.224 3.1-1.768 3.648-.16.16-.404.387-.71.625v5.085c1.756-.654 3.094-1.78 3.866-2.554 1.187-1.185 3.166-3.663 3.074-6.93"/><g transform="translate(0 61.404)"><mask id="x" fill="#fff"><use xlink:href="#w"/></mask><path d="M5.72 23.947c2.919-3.263 5.284-7.414 6.487-11.387 1.392-4.607 1.017-8.285-1.054-10.356C9.922.972 8.077.322 5.813.322 4.042.322 2.05.702 0 1.399v4.779c2.102-.88 4.142-1.39 5.814-1.39 1.023 0 1.816.209 2.18.573.659.658.897 2.74-.063 5.904-1.005 3.323-3.076 6.95-5.54 9.703-.79.883-1.589 1.569-2.391 2.054v4.894c2.017-.643 3.933-1.97 5.72-3.969" fill="#C91F1F" mask="url(#x)"/></g><path fill="#C91F1F" d="M3.99 207.806L0 205.876v10.109l.028.014z"/><g transform="translate(87.244)"><mask id="z" fill="#fff"><use xlink:href="#y"/></mask><path d="M1.696.776H.556c.172.198.355.396.551.59l.59-.59z" fill="#C91F1F" mask="url(#z)"/></g><path fill="#C91F1F" d="M21.256 485.72H0V488h23.788l-.542-1.062z"/><g transform="translate(132.482 484.768)"><mask id="B" fill="#fff"><use xlink:href="#A"/></mask><path fill="#C91F1F" mask="url(#B)" d="M.17.98v2.252h11.397L9.968.981z"/></g><path d="M144.11 403.34l-10.168-21.03h3.155l6.455 13.348 2.01 1.262h12.696v-4.467h-11.296l-4.904-10.143h18.177l13.238 25.957-10.065-4.716-.947-.212H144.11zm33.365 11.734l2.936-3.038-16.819-32.975-1.99-1.217H130.38l-2.011 3.205 8.19 16.933 8.101 16.757 1.629-.788 2.39-1.156-1.744-3.61-.667-1.38h2.05l3.353 6.934 4.02-1.945-2.412-4.989h8.686l15.509 7.269zM8.335 277.06l-2.412-4.99h2.052l3.351 6.933 4.02-1.945-2.412-4.988h8.685l15.51 7.268 2.936-3.037-16.819-32.975-1.99-1.218H0v11.186l3.205 6.63 2.01 1.261h12.699v-4.467H6.617l-4.904-10.144H19.89l13.24 25.958-10.067-4.716-.948-.212H3.764L0 259.82v10.257l4.316 8.926zm116.872 55.651l-3.962-8.194-4.02 1.944 3.963 8.195zm33.272 130.999l4.02-1.944-3.96-8.194-4.022 1.944zm11.977-162.556l-4.02-1.946-3.962 8.196 4.02 1.942zm138.978-41.231l-4.02-1.944-3.962 8.194 4.02 1.943zm-191.482-1.931l-8.193-3.963-1.944 4.021 8.193 3.962zm-64.164 83.23l4.02 1.944 3.963-8.194-4.021-1.944zm56.758 57.532l-8.192-3.962-1.944 4.02 8.192 3.963zM93.35 462.541l4.02 1.945 3.961-8.194-4.02-1.943zM67.593 251.73l-4.02-1.945-3.962 8.194 4.02 1.944zm-35.117 46.294l-4.02 1.945 3.962 8.192 4.02-1.944zm136.685 67.89l-6.709-6.15-3.017 3.294 6.71 6.149z" fill="#C91F1F"/><g transform="translate(0 351.188)"><mask id="D" fill="#fff"><use xlink:href="#C"/></mask><path fill="#C91F1F" mask="url(#D)" d="M6.004 5.939L0 .439v6.059l2.985 2.735z"/></g><path fill="#C91F1F" d="M228.217 397.812l4.02 1.944 3.963-8.194-4.02-1.944zm-39.598-139.751l-4.02-1.944-3.963 8.194 4.021 1.944zM63.838 291.13c-4.239-4.739-5.212-10.329-4.31-11.235.109-.104.5-.285 1.3-.285 2.384 0 6.56 1.578 9.934 4.597 1.34 1.203 2.039 2.407 2.07 3.58.046 1.652-1.22 3.1-1.767 3.648-.532.53-1.941 1.768-3.557 1.768-1.203 0-2.437-.697-3.67-2.074m10.384 3.464c1.189-1.187 3.165-3.665 3.076-6.928-.07-2.449-1.266-4.732-3.561-6.787-3.832-3.428-9.02-5.734-12.91-5.734-2.364 0-3.728.868-4.456 1.596-3.546 3.547-.664 12 4.142 17.369 2.114 2.362 4.468 3.56 6.995 3.56 3.165 0 5.565-1.928 6.714-3.076M29.03 471.866c-1.233 1.378-2.464 2.074-3.667 2.074-1.615 0-3.028-1.238-3.557-1.768-.548-.547-1.813-1.996-1.768-3.646.032-1.175.728-2.378 2.071-3.581 3.372-3.02 7.55-4.598 9.933-4.598.8 0 1.191.181 1.298.287.905.901-.069 6.494-4.31 11.232m3.012-15.985c-3.89 0-9.079 2.306-12.91 5.734-2.293 2.055-3.49 4.338-3.559 6.785-.089 3.265 1.888 5.744 3.073 6.93 1.149 1.148 3.552 3.075 6.717 3.075 2.526 0 4.88-1.197 6.995-3.559 4.806-5.37 7.687-13.822 4.141-17.372-.727-.725-2.09-1.593-4.457-1.593m63.1-83.354c-4.24-4.738-5.213-10.33-4.31-11.233.105-.109.5-.286 1.3-.286 2.383 0 6.559 1.578 9.93 4.597 1.343 1.2 2.042 2.408 2.074 3.578.046 1.65-1.22 3.1-1.768 3.647-.532.533-1.944 1.772-3.556 1.772-1.204 0-2.438-.7-3.67-2.075m10.383 3.463c1.19-1.19 3.165-3.666 3.076-6.93-.069-2.449-1.266-4.73-3.56-6.783-3.833-3.432-9.02-5.738-12.91-5.738-2.365 0-3.728.868-4.457 1.595-3.545 3.547-.663 12 4.14 17.372 2.116 2.364 4.47 3.56 6.998 3.56 3.164 0 5.565-1.928 6.713-3.076m127.222 45.958c.105-.106.5-.286 1.3-.286 2.382 0 6.56 1.581 9.93 4.598 1.344 1.203 2.043 2.41 2.074 3.581.045 1.65-1.22 3.1-1.767 3.647-.534.532-1.945 1.77-3.558 1.77-1.202 0-2.437-.7-3.669-2.074-4.24-4.741-5.213-10.33-4.31-11.236m7.979 17.776c3.165 0 5.566-1.928 6.714-3.079 1.19-1.186 3.166-3.665 3.077-6.928-.07-2.45-1.266-4.732-3.561-6.783-3.833-3.432-9.02-5.738-12.91-5.738-2.364 0-3.728.869-4.456 1.596-3.546 3.546-.664 12 4.14 17.37 2.116 2.365 4.47 3.562 6.996 3.562m-128.444-16.735c.802-.803 2.248-1.227 4.179-1.227 3.806 0 8.776 1.624 13.508 4.238l-3.262.857-1.664 2.066-.252 6.006-7.174 1.698-1.667 1.685-.57 2.552c-1.4-2.504-2.528-5.102-3.299-7.649-1.435-4.746-1.358-8.665.2-10.226m30.419 17.3c.112 4.019-2.574 7.322-4.188 8.935-1.566 1.563-4.778 4.19-8.692 4.19-3.068 0-6.095-1.644-9.002-4.89a40.507 40.507 0 0 1-2.026-2.454l1.211-5.418 7.461-1.765 1.717-2.08.254-6.05 5.623-1.475h.003c.96.711 1.882 1.464 2.753 2.243 3.16 2.831 4.806 5.778 4.886 8.763m-12.88 17.593c5.524 0 9.795-3.447 11.85-5.501 2.119-2.12 5.653-6.525 5.496-12.215-.118-4.26-2.263-8.285-6.377-11.966-7.168-6.419-17.174-10.903-24.328-10.903-3.185 0-5.655.851-7.336 2.535-2.85 2.852-3.32 8.062-1.318 14.676 1.794 5.93 5.322 12.124 9.685 16.995 3.787 4.232 7.937 6.38 12.328 6.38m100-147.505c.367-.364 1.16-.572 2.18-.572 3.781 0 9.426 2.597 13.425 6.178 1.898 1.699 2.886 3.439 2.936 5.162.063 2.335-1.544 4.3-2.51 5.266-.936.936-2.849 2.51-5.126 2.51-1.773 0-3.558-.986-5.301-2.938-2.464-2.752-4.535-6.38-5.54-9.703-.957-3.162-.723-5.244-.063-5.903m10.904 23.01c3.886 0 6.857-2.392 8.283-3.817 1.472-1.472 3.927-4.54 3.815-8.548-.083-3.002-1.57-5.819-4.42-8.368-4.888-4.377-11.48-7.317-16.404-7.317-2.26 0-4.103.651-5.334 1.882-2.075 2.075-2.446 5.75-1.055 10.357 1.203 3.973 3.566 8.124 6.487 11.387 2.628 2.936 5.53 4.423 8.628 4.423m-159.704 1.67l-2.566-10.719h2.487l1.226 5.367 2.177 1.737h8.788v-4.468h-7.007l-.603-2.636h2.404l2.145-1.616 4.89-16.956 3.774 15.788-4.499 13.503H81.021zm16.945 2.94l5.21-15.639.052-1.227-5.895-24.642-4.316-.1-6.768 23.482h-8.863l-1.128-4.707-4.342 1.041 3.517 14.687-.019.006 3.312 13.83 4.342-1.041-.996-4.164h1.936l1.246 5.205 4.343-1.041-.996-4.164h7.245l2.12-1.526zm-27.614 84.446l3.775-15.784 4.889 16.956 2.146 1.615h2.405l-.602 2.637h-7.008v4.466h8.788l2.177-1.737 1.226-5.366h2.489l-2.57 10.72H74.852l-4.5-13.507zm26.82-5.346l-4.341-1.04-1.126 4.706h-8.862l-6.77-23.48-4.318.098-5.895 24.643.055 1.227 5.21 15.638 2.117 1.527h7.248l-.998 4.162 4.344 1.04 1.245-5.202h1.938l-.998 4.162 4.343 1.04 3.312-13.829-.021-.005v-.003l3.518-14.684zm95.893-117.86l-2.57-10.72h2.49l1.225 5.366 2.177 1.737h8.788v-4.467h-7.008l-.602-2.636h2.403l2.145-1.616 4.89-16.956 3.778 15.785-4.5 13.507h-13.216zm16.942 2.94l5.21-15.64.055-1.226-5.894-24.644-4.32-.098-6.769 23.482h-8.861l-1.126-4.707-4.346 1.04 3.518 14.685v.002l-.018.005 3.312 13.83 4.343-1.041-.998-4.162h1.938l1.246 5.202 4.342-1.04-.996-4.162h7.247l2.117-1.526zm-81.479-20.969l4.953 5.09 1.6.676h15.536l-1.58 3.33-7.454.001v4.466h8.865l2.017-1.276 3.7-7.796 5.312-11.192 2.296-4.839-4.034-1.914-1.69 3.562h-21.124v4.467h19.003l-3.192 6.725h-16.713l-3.331-3.426 11.868-33.976-2.108-2.97h-9.8v4.467h6.655l-11.287 32.31zm86.212 152.595v-4.466h-9.8l-2.107 2.97 11.868 33.977-3.332 3.425h-16.713l-3.192-6.726h19.003v-4.466h-21.123l-1.69-3.563-4.035 1.916 2.296 4.838 1.235 2.601 7.777 16.388 2.017 1.275h8.865v-4.466h-7.453l-1.58-3.331h15.536l1.6-.676 4.953-5.09.508-2.294-11.287-32.312zm-4.104-67.84l.005-.01 2.428-5.114 3.392-7.252-2.022-3.18h-18.204c1.593-4.84 6.15-8.344 11.516-8.344 6.684 0 12.123 5.439 12.123 12.126 0 5.692-3.942 10.476-9.238 11.774m-2.885-28.365c-7.846 0-14.433 5.478-16.149 12.81h-1.652v4.466h20.978l-1.9 4.061-2.43 5.12-.015.034-1.055 2.224H187.53l-4.203-7.568 14.728-33.164-2.04-3.14h-12.438v4.466h2.841l-4.258 8.97 4.034 1.917 5.167-10.887h1.22l-13.788 31.043.09 1.991 5.38 9.69 1.954 1.149h17.264l-1.857 4.006h-5.915v4.467h7.342l2.024-1.294 3.336-7.197c8.841-.348 15.927-7.647 15.927-16.573 0-9.149-7.441-16.591-16.588-16.591"/><g transform="translate(0 368.347)"><mask id="F" fill="#fff"><use xlink:href="#E"/></mask><path d="M13.433 43.564c-5.296-1.298-9.237-6.084-9.237-11.777 0-6.686 5.44-12.125 12.125-12.125 5.362 0 9.924 3.502 11.517 8.344H9.631l-2.022 3.18 3.399 7.261 2.412 5.085.014.032zm19.275-39.06l5.167 10.887 4.033-1.916-4.257-8.971h2.842V.039h-12.44l-2.04 3.139 14.729 33.166-4.203 7.567H18.543l-3.496-7.368-1.906-4.071H34.12v-4.466h-1.648c-1.713-7.333-8.307-12.811-16.151-12.811-8.132 0-14.915 5.882-16.321 13.613v5.958c1.366 7.52 7.823 13.29 15.659 13.597l3.334 7.194 2.025 1.293h7.343v-4.465h-5.917l-1.857-4.007h17.266l1.952-1.149 5.381-9.69.09-1.99L31.488 4.504h1.219z" fill="#C91F1F" mask="url(#F)"/></g><path d="M54.2 371.218c3.024 3.026 6.201 2.979 8.754 2.939 2.228-.034 3.84-.057 5.529 1.63 1.688 1.69 1.664 3.301 1.63 5.531-.037 2.553-.085 5.73 2.939 8.755l3.158-3.158c-1.69-1.688-1.665-3.3-1.631-5.53.039-2.553.085-5.73-2.94-8.754-3.023-3.026-6.2-2.977-8.753-2.94-2.227.035-3.84.059-5.529-1.632-1.689-1.688-1.664-3.298-1.63-5.528.038-2.553.087-5.731-2.938-8.755-3.024-3.025-6.2-2.978-8.754-2.939-2.229.033-3.84.06-5.528-1.63-1.689-1.689-1.664-3.3-1.63-5.53.038-2.553.087-5.73-2.938-8.754l-3.158 3.157c1.689 1.69 1.664 3.3 1.63 5.53-.038 2.553-.086 5.73 2.938 8.755 3.024 3.025 6.2 2.977 8.754 2.939 2.23-.034 3.84-.059 5.53 1.63 1.687 1.689 1.662 3.3 1.629 5.529-.039 2.553-.087 5.73 2.937 8.755" fill="#C91F1F"/><g transform="translate(45.238 433.06)"><mask id="H" fill="#fff"><use xlink:href="#G"/></mask><path d="M44.64 46.846c.04-2.554.087-5.73-2.937-8.754-3.026-3.028-6.202-2.978-8.755-2.94-2.229.036-3.84.056-5.53-1.63-1.688-1.689-1.664-3.3-1.63-5.532.039-2.55.086-5.73-2.937-8.754-3.025-3.024-6.203-2.978-8.754-2.938-2.228.035-3.84.057-5.53-1.63-1.686-1.689-1.663-3.301-1.629-5.53.04-2.553.086-5.73-2.937-8.755L.843 3.54c1.687 1.688 1.664 3.3 1.63 5.53-.04 2.553-.086 5.732 2.938 8.757 3.023 3.024 6.202 2.976 8.752 2.938 2.232-.035 3.843-.059 5.53 1.63 1.688 1.689 1.664 3.298 1.63 5.53-.037 2.551-.087 5.73 2.938 8.754 3.023 3.025 6.202 2.976 8.754 2.939 2.229-.033 3.84-.058 5.528 1.632 1.69 1.687 1.666 3.298 1.632 5.528-.037 2.385-.08 5.319 2.386 8.163h1.146l2.563-2.564c-1.687-1.691-1.663-3.303-1.63-5.53" fill="#C91F1F" mask="url(#H)"/></g><path d="M175.995 474.91c-1.777-1.832-3.99-4.112-8.268-4.112-4.277 0-6.49 2.28-8.268 4.113-1.552 1.6-2.674 2.757-5.062 2.757-2.388 0-3.51-1.157-5.062-2.758-1.778-1.833-3.991-4.112-8.267-4.112-4.277 0-6.49 2.28-8.268 4.112-1.552 1.6-2.674 2.758-5.062 2.758-2.388 0-3.51-1.157-5.061-2.757-1.778-1.834-3.991-4.113-8.268-4.113v4.465c2.388 0 3.51 1.156 5.062 2.758 1.778 1.832 3.99 4.112 8.267 4.112 4.277 0 6.49-2.28 8.268-4.113 1.552-1.601 2.674-2.757 5.062-2.757 2.387 0 3.51 1.156 5.061 2.757 1.779 1.833 3.99 4.113 8.268 4.113 4.276 0 6.49-2.28 8.268-4.112 1.552-1.602 2.674-2.758 5.062-2.758 2.388 0 3.51 1.156 5.062 2.758 1.779 1.832 3.991 4.112 8.268 4.112v-4.465c-2.388 0-3.51-1.157-5.062-2.757M120.361 299.78c2.23-.032 3.84-.058 5.529 1.63 1.689 1.69 1.664 3.302 1.63 5.53-.037 2.555-.086 5.732 2.939 8.755l3.158-3.156c-1.69-1.69-1.664-3.3-1.63-5.53.038-2.554.085-5.73-2.94-8.756-3.024-3.026-6.2-2.98-8.753-2.94-2.23.036-3.84.059-5.53-1.63-1.687-1.69-1.664-3.3-1.63-5.53.038-2.552.087-5.729-2.938-8.755-3.024-3.025-6.2-2.977-8.753-2.938-2.23.034-3.84.059-5.529-1.63-1.689-1.69-1.664-3.3-1.63-5.53.038-2.552.087-5.73-2.938-8.755l-3.158 3.16c1.69 1.688 1.664 3.298 1.631 5.528-.039 2.553-.087 5.73 2.938 8.755 3.024 3.024 6.2 2.978 8.754 2.938 2.228-.034 3.839-.059 5.527 1.63 1.69 1.689 1.665 3.3 1.631 5.531-.039 2.552-.087 5.73 2.938 8.753 3.025 3.026 6.201 2.979 8.754 2.94m63.349 125.195c1.687-1.688 3.298-1.663 5.528-1.631 2.553.04 5.73.087 8.754-2.938 3.024-3.025 2.977-6.203 2.938-8.755-.033-2.23-.057-3.842 1.63-5.53 1.69-1.69 3.3-1.665 5.53-1.632 2.551.04 5.73.086 8.754-2.938l-3.157-3.159c-1.689 1.69-3.3 1.665-5.53 1.631-2.551-.037-5.729-.085-8.753 2.94-3.025 3.024-2.977 6.202-2.938 8.755.033 2.23.057 3.84-1.631 5.53-1.689 1.69-3.3 1.665-5.53 1.63-2.553-.04-5.729-.086-8.752 2.938-3.025 3.025-2.977 6.202-2.939 8.755.035 2.231.059 3.842-1.63 5.53-1.688 1.689-3.297 1.664-5.528 1.63-2.552-.037-5.729-.085-8.754 2.938l3.159 3.159c1.687-1.688 3.299-1.666 5.527-1.63 2.553.038 5.73.085 8.754-2.939 3.024-3.025 2.976-6.201 2.938-8.755-.033-2.23-.058-3.841 1.63-5.53m-17.368-104.332c-2.552-.037-5.729-.086-8.753 2.94-3.025 3.024-2.978 6.201-2.939 8.755.034 2.23.057 3.84-1.632 5.53-1.687 1.689-3.298 1.664-5.527 1.63-2.554-.038-5.73-.085-8.754 2.938-3.024 3.026-2.977 6.203-2.937 8.755.033 2.231.057 3.842-1.632 5.53-1.688 1.69-3.298 1.666-5.527 1.63-2.554-.039-5.73-.085-8.754 2.939l3.158 3.158c1.688-1.688 3.298-1.664 5.528-1.63 2.554.041 5.729.086 8.753-2.939 3.025-3.024 2.976-6.201 2.939-8.754-.035-2.23-.059-3.842 1.63-5.53 1.688-1.688 3.3-1.664 5.528-1.631 2.554.04 5.729.087 8.753-2.938 3.025-3.025 2.978-6.203 2.939-8.756-.034-2.229-.057-3.84 1.632-5.53 1.687-1.687 3.3-1.664 5.528-1.63 2.552.04 5.73.086 8.754-2.939l-3.157-3.159c-1.689 1.69-3.3 1.665-5.53 1.631m73.24 137.026l4.02 1.945 3.963-8.194-4.02-1.943zm20.892-153.595l4.02 1.945 3.961-8.194-4.02-1.945zM6.94 429.717c-.065-2.448-1.263-4.732-3.557-6.783A24.7 24.7 0 0 0 0 420.402v5.508c.136.115.269.23.403.35 1.344 1.203 2.04 2.41 2.074 3.581.045 1.65-1.224 3.1-1.768 3.647a8.43 8.43 0 0 1-.71.627v5.086c1.756-.658 3.094-1.783 3.866-2.556 1.187-1.186 3.166-3.665 3.074-6.928" fill="#C91F1F"/><g transform="translate(0 304.865)"><mask id="J" fill="#fff"><use xlink:href="#I"/></mask><path d="M5.72 24.097c2.919-3.263 5.284-7.413 6.487-11.386 1.392-4.607 1.017-8.282-1.054-10.357C9.922 1.123 8.077.472 5.813.472 4.042.472 2.05.857 0 1.549v4.779c2.102-.88 4.142-1.389 5.814-1.389 1.023 0 1.816.208 2.18.572.659.66.897 2.742-.063 5.905-1.005 3.322-3.076 6.95-5.54 9.702C1.602 22 .803 22.69 0 23.175v4.891c2.017-.643 3.933-1.97 5.72-3.969" fill="#C91F1F" mask="url(#J)"/></g><path fill="#C91F1F" d="M3.99 451.418L0 449.49v10.11l.028.013zm283.22-159.186a41.82 41.82 0 0 1 2.455-2.028l5.416 1.212 1.765 7.462 2.08 1.718 6.047.254 1.476 5.621-.002.002v.002a39.098 39.098 0 0 1-2.243 2.754c-2.83 3.163-5.776 4.807-8.758 4.888-4.02.11-7.324-2.576-8.933-4.19-1.568-1.563-4.194-4.778-4.194-8.695 0-3.067 1.647-6.095 4.892-9m15.304-8.737c4.75-1.438 8.668-1.36 10.225.2.805.802 1.23 2.247 1.23 4.177 0 3.807-1.627 8.778-4.24 13.51l-.857-3.26-2.065-1.665-6.006-.252-1.697-7.177-1.684-1.665-2.552-.57.001-.001c2.504-1.399 5.104-2.529 7.645-3.297m-24.662 17.737c0 5.527 3.447 9.801 5.5 11.854 2.12 2.122 6.525 5.653 12.216 5.496 4.256-.117 8.283-2.264 11.964-6.375 6.419-7.172 10.9-17.179 10.9-24.335 0-3.185-.852-5.654-2.534-7.336-2.85-2.85-8.063-3.318-14.676-1.319-5.926 1.797-12.119 5.326-16.991 9.686-4.232 3.79-6.379 7.938-6.379 12.33"/></g></svg>